<?xml version="1.0" encoding="UTF-8"?>
<svg width="14px" height="14px" viewBox="0 0 14 14" version="1.1" xmlns="http://www.w3.org/2000/svg" xmlns:xlink="http://www.w3.org/1999/xlink">
    <!-- Generator: Sketch 40.3 (33839) - http://www.bohemiancoding.com/sketch -->
    <title>时间 (2)</title>
    <desc>Created with Sketch.</desc>
    <defs></defs>
    <g id="公益机构2" stroke="none" stroke-width="1" fill="none" fill-rule="evenodd">
        <g id="公益社区-5新闻列表" transform="translate(-319.000000, -714.000000)" fill="#9A9CA4">
            <g id="Group-12" transform="translate(98.000000, 533.000000)">
                <g id="news-list" transform="translate(0.000000, 89.000000)">
                    <g id="Group-4" transform="translate(221.000000, 0.000000)">
                        <g id="时间-(2)" transform="translate(0.000000, 92.000000)">
                            <g id="Group">
                                <path d="M7,0 C3.14008333,0 0,3.14008333 0,7 C0,10.8599167 3.14008333,14 7,14 C10.8599167,14 14,10.8599167 14,7 C14,3.14008333 10.8599167,0 7,0 L7,0 Z M7,12.8333333 C3.7835,12.8333333 1.16666667,10.2165 1.16666667,7 C1.16666667,3.7835 3.7835,1.16666667 7,1.16666667 C10.2165,1.16666667 12.8333333,3.7835 12.8333333,7 C12.8333333,10.2165 10.2165,12.8333333 7,12.8333333 L7,12.8333333 Z" id="Shape"></path>
                                <path d="M9.71133333,8.71558333 L7.29166667,7.31616667 L7.29166667,3.5 C7.29166667,3.178 7.03033333,2.91666667 6.70833333,2.91666667 C6.38633333,2.91666667 6.125,3.178 6.125,3.5 L6.125,7.58333333 C6.125,7.79975 6.39391667,7.98116667 6.56891667,8.0815 C6.61733333,8.15441667 6.75033333,8.22033333 6.83141667,8.267 L9.23766667,9.72533333 C9.5165,9.88633333 9.81866667,9.79066667 9.97966667,9.51183333 C10.1406667,9.233 9.99075,8.87658333 9.71133333,8.71558333 L9.71133333,8.71558333 Z" id="Shape"></path>
                            </g>
                        </g>
                    </g>
                </g>
            </g>
        </g>
    </g>
</svg>