<?xml version="1.0" encoding="UTF-8"?>
<svg width="68px" height="68px" viewBox="0 0 68 68" version="1.1" xmlns="http://www.w3.org/2000/svg" xmlns:xlink="http://www.w3.org/1999/xlink">
    <!-- Generator: Sketch 40.3 (33839) - http://www.bohemiancoding.com/sketch -->
    <title>特权捐款</title>
    <desc>Created with Sketch.</desc>
    <defs>
        <circle id="path-1" cx="34" cy="34" r="34"></circle>
        <mask id="mask-2" maskContentUnits="userSpaceOnUse" maskUnits="objectBoundingBox" x="0" y="0" width="68" height="68" fill="white">
            <use xlink:href="#path-1"></use>
        </mask>
    </defs>
    <g id="公益机构2" stroke="none" stroke-width="1" fill="none" fill-rule="evenodd">
        <g id="公益社区简体-4机构投票" transform="translate(-1053.000000, -454.000000)">
            <g id="会员权益_品牌专享_1px-copy-6" transform="translate(1053.000000, 454.000000)">
                <g id="特权捐款">
                    <use id="Oval" stroke="#FFB005" mask="url(#mask-2)" stroke-width="2" xlink:href="#path-1"></use>
                    <path d="M37.0818692,38.0074766 C37.3211215,38.151028 37.5842991,38.246729 37.8235514,38.246729 C38.086729,38.246729 38.3259813,38.1749533 38.5891589,38.0074766 L38.6370093,37.9835514 C40.2160748,36.9069159 48.3028037,31.2127103 51.4130841,25.5185047 C52.2743925,24.1786916 52.728972,22.6714019 52.728972,21.1401869 C52.728972,16.6661682 49.0923364,13.0295327 44.6183178,13.0295327 C41.4123364,13.0295327 39.0915888,15.5416822 37.8714019,16.953271 C36.7229907,15.6373832 34.3065421,13.0295327 31.124486,13.0295327 C26.6504673,13.0295327 23.0138318,16.6661682 23.0138318,21.1401869 C23.0138318,22.7192523 23.4684112,24.2265421 24.3057944,25.5185047 C27.6553271,31.8108411 36.9861682,37.9596262 37.0818692,38.0074766 L37.0818692,38.0074766 Z M44.5704673,15.7330841 C47.5371963,15.7330841 49.9536449,18.1495327 49.9536449,21.1162617 C49.9536449,22.168972 49.6665421,23.1738318 49.0923364,24.0351402 C49.0684112,24.0590654 49.0684112,24.0829907 49.044486,24.1069159 L49.0205607,24.1308411 C46.6280374,28.5809346 40.5031776,33.2702804 37.8235514,35.1842991 C35.1439252,33.2702804 28.9951402,28.5570093 26.6265421,24.1308411 L26.6026168,24.0829907 C26.6026168,24.0590654 26.5786916,24.0351402 26.5547664,24.011215 C26.004486,23.1499065 25.6934579,22.1211215 25.6934579,21.0923364 C25.6934579,18.1495327 28.1099065,15.7330841 31.0766355,15.7330841 C33.2299065,15.7330841 35.0482243,17.8624299 36.0291589,19.0108411 C36.651215,19.7525234 37.0818692,20.231028 37.8235514,20.231028 C38.5652336,20.231028 38.9719626,19.7525234 39.6179439,19.0347664 C40.5988785,17.8624299 42.4171963,15.7330841 44.5704673,15.7330841 L44.5704673,15.7330841 Z" id="Shape" fill="#FFB005"></path>
                    <path d="M51.4848598,37.3375701 C50.9824299,37.0504673 50.4560748,36.9069159 49.9536449,36.9069159 C48.4463551,36.9069159 47.2740187,38.1031776 46.7715888,38.6295327 C45.4317757,40.0171963 43.8048598,41.4048598 43.0631776,42.0269159 C42.7521495,41.9072897 42.393271,41.835514 41.9626168,41.8115888 C39.4504673,41.6680374 35.4549533,41.2134579 34.5218692,40.6392523 C33.4691589,40.0171963 32.6317757,39.4190654 31.8900935,38.868785 L31.7704673,38.7730841 C29.5454206,37.1940187 27.7988785,35.9259813 23.4684112,35.9259813 C22.2482243,35.9259813 21.1715888,36.2370093 19.9992523,36.5958879 L19.8796262,36.6437383 C18.8508411,36.9547664 17.8699065,37.2657944 16.7214953,37.2657944 C15.2381308,37.2657944 14.0179439,38.4859813 14.0179439,39.9693458 L14.0179439,46.2616822 C14.0179439,47.7450467 15.2381308,48.9652336 16.7214953,48.9652336 C19.4250467,48.9652336 22.7745794,49.108785 23.4923364,49.3241121 C24.9517757,49.8026168 28.4448598,51.8601869 29.5454206,52.5540187 L29.593271,52.6018692 L29.6171963,52.6018692 C30.0717757,52.8411215 30.5981308,52.9846729 31.124486,52.9846729 L42.5607477,52.9846729 C43.8766355,52.9846729 45.2882243,51.8123364 45.7906542,50.9749533 C46.388785,49.9940187 48.0396262,47.6254206 52.4657944,41.9790654 C52.6093458,41.7876636 52.7050467,41.6680374 52.7050467,41.6680374 C52.7050467,41.6441121 52.728972,41.6441121 52.728972,41.6201869 C52.7528972,41.5723364 52.8007477,41.524486 52.8246729,41.4527103 C53.5663551,40.0171963 52.9921495,38.2228037 51.4848598,37.3375701 L51.4848598,37.3375701 Z M41.8669159,45.4721495 L33.3016822,45.926729 C32.6796262,45.9028037 30.9330841,44.6586916 30.0957009,44.0605607 C29.9521495,43.9648598 29.8325234,43.8691589 29.688972,43.7734579 C29.5454206,43.677757 29.4257944,43.5820561 29.282243,43.4863551 C28.5884112,42.9839252 28.0620561,42.6728972 27.6314019,42.4575701 C27.44,42.3618692 27.2485981,42.3140187 27.033271,42.3140187 C26.5308411,42.3140187 26.0523364,42.6011215 25.8130841,43.0557009 C25.4781308,43.7016822 25.7413084,44.5390654 26.411215,44.8979439 C26.8657944,45.113271 27.44,45.52 28.0620561,45.9506542 C28.2295327,46.0702804 28.3730841,46.1659813 28.5405607,46.2856075 L28.6123364,46.3334579 C30.311028,47.5297196 31.9140187,48.6542056 33.3495327,48.6542056 L41.9147664,48.1996262 C43.6373832,48.1757009 45.048972,46.7641121 45.048972,45.0414953 C45.048972,44.7304673 45.0011215,44.395514 44.9054206,44.084486 C45.9581308,43.2231776 47.4654206,41.8833645 48.7095327,40.5914019 C49.2837383,39.993271 49.6665421,39.7061682 49.9297196,39.7061682 C49.9775701,39.7061682 50.0493458,39.7300935 50.0971963,39.7540187 C50.2885981,39.8736449 50.4560748,40.088972 50.4082243,40.3042991 C49.9775701,40.8545794 44.953271,47.2186916 43.3981308,49.7547664 C43.2545794,49.9940187 42.6803738,50.4007477 42.5128972,50.4246729 L31.0766355,50.4246729 C31.0048598,50.4246729 30.9330841,50.4007477 30.8852336,50.3768224 L30.8613084,50.3528972 C29.4736449,49.4915888 26.0523364,47.4579439 24.3057944,46.8837383 C22.8224299,46.4052336 17.7502804,46.3813084 16.6975701,46.3573832 L16.6975701,40.1128972 C18.3484112,40.1128972 19.7360748,39.6583178 20.7648598,39.3472897 C21.7218692,39.0362617 22.5353271,38.7730841 23.4205607,38.7730841 C26.9136449,38.7730841 28.157757,39.6583178 30.1914019,41.1416822 L30.311028,41.2373832 C31.0766355,41.7876636 31.9618692,42.4336449 33.0624299,43.1035514 C33.588785,43.4385047 34.4500935,43.7016822 35.7659813,43.9648598 C38.0628037,44.4194393 40.7902804,44.5869159 41.6994393,44.6347664 L41.8429907,44.6347664 C41.957352,44.6342919 42.0671665,44.6795119 42.1480329,44.7603783 C42.2288994,44.8412447 42.2741193,44.9510592 42.2736449,45.0654206 C42.2975701,45.2807477 42.1061682,45.4721495 41.8669159,45.4721495 L41.8669159,45.4721495 Z" id="Shape" fill="#FFB005"></path>
                </g>
            </g>
        </g>
    </g>
</svg>