<?xml version="1.0" encoding="UTF-8"?>
<svg width="68px" height="68px" viewBox="0 0 68 68" version="1.1" xmlns="http://www.w3.org/2000/svg" xmlns:xlink="http://www.w3.org/1999/xlink">
    <!-- Generator: Sketch 40.3 (33839) - http://www.bohemiancoding.com/sketch -->
    <title>特权手续费</title>
    <desc>Created with Sketch.</desc>
    <defs>
        <circle id="path-1" cx="34" cy="34" r="34"></circle>
        <mask id="mask-2" maskContentUnits="userSpaceOnUse" maskUnits="objectBoundingBox" x="0" y="0" width="68" height="68" fill="white">
            <use xlink:href="#path-1"></use>
        </mask>
    </defs>
    <g id="公益机构2" stroke="none" stroke-width="1" fill="none" fill-rule="evenodd">
        <g id="公益社区简体-4机构投票" transform="translate(-649.000000, -454.000000)">
            <g id="会员权益_品牌专享_1px-copy-5" transform="translate(649.000000, 454.000000)">
                <g id="特权">
                    <use id="Oval" stroke="#FFB005" mask="url(#mask-2)" stroke-width="2" xlink:href="#path-1"></use>
                    <path d="M45.1309466,14.8572284 C43.606531,14.8572284 42.366022,16.0983624 42.366022,17.6241061 C42.366022,19.1496154 43.606492,20.390515 45.1309466,20.390515 C46.6553621,20.390515 47.8954024,19.1496154 47.8954024,17.6241061 C47.8954024,16.0983624 46.6554012,14.8572284 45.1309466,14.8572284 L45.1309466,14.8572284 Z M45.1309466,22.2477434 C42.5829753,22.2477434 40.5101608,20.1737179 40.5101608,17.6241061 C40.5101608,15.0742989 42.5830144,13 45.1309466,13 C47.6786834,13 49.7513027,15.0742989 49.7513027,17.6241061 C49.7513027,20.1736789 47.6787225,22.2477434 45.1309466,22.2477434 L45.1309466,22.2477434 Z M42.6042644,28.082671 C41.0798489,28.082671 39.8398086,29.323805 39.8398086,30.8493143 C39.8398086,32.3748236 41.0798098,33.6159576 42.6042644,33.6159576 C44.12868,33.6159576 45.3689937,32.3748236 45.3689937,30.8493143 C45.3689937,29.323805 44.1285237,28.082671 42.6042644,28.082671 L42.6042644,28.082671 Z M42.6042644,35.4732251 C40.0565276,35.4732251 37.983674,33.3989262 37.983674,30.8493534 C37.983674,28.2997806 40.0565276,26.2254817 42.6042644,26.2254817 C45.1520013,26.2254817 47.2248549,28.2997806 47.2248549,30.8493534 C47.2248549,33.3989262 45.1520013,35.4732251 42.6042644,35.4732251 L42.6042644,35.4732251 Z M32.5478093,21.6213365 C31.0233937,21.6213365 29.7831582,22.8624706 29.7831582,24.3879799 C29.7831582,25.9134892 31.0231594,27.1546232 32.5478093,27.1546232 C34.0724592,27.1546232 35.3124604,25.9134892 35.3124604,24.3879799 C35.3124604,22.8624706 34.0724592,21.6213365 32.5478093,21.6213365 L32.5478093,21.6213365 Z M32.5478093,29.0118516 C29.9998381,29.0118516 27.9270235,26.9375527 27.9270235,24.3879799 C27.9270235,21.8384071 29.999799,19.7641082 32.5478093,19.7641082 C35.0955462,19.7641082 37.1685951,21.8384071 37.1685951,24.3879799 C37.1685951,26.9375527 35.0955462,29.0118516 32.5478093,29.0118516 L32.5478093,29.0118516 Z" id="Shape" fill="#FFB005"></path>
                    <path d="M52.4669159,34.4115888 C51.964486,34.124486 51.4381308,33.9809346 50.9357009,33.9809346 C49.4284112,33.9809346 48.2560748,35.1771963 47.7536449,35.7035514 C46.4138318,37.091215 44.7869159,38.4788785 44.0452336,39.1009346 C43.7342056,38.9813084 43.3753271,38.9095327 42.9446729,38.8856075 C40.4325234,38.7420561 36.4370093,38.2874766 35.5039252,37.713271 C34.451215,37.091215 33.6138318,36.4930841 32.8721495,35.9428037 L32.7525234,35.8471028 C30.5274766,34.2680374 28.7809346,33 24.4504673,33 C23.2302804,33 22.1536449,33.311028 20.9813084,33.6699065 L20.8616822,33.717757 C19.8328972,34.028785 18.8519626,34.3398131 17.7035514,34.3398131 C16.2201869,34.3398131 15,35.56 15,37.0433645 L15,43.3357009 C15,44.8190654 16.2201869,46.0392523 17.7035514,46.0392523 C20.4071028,46.0392523 23.7566355,46.1828037 24.4743925,46.3981308 C25.9338318,46.8766355 29.4269159,48.9342056 30.5274766,49.6280374 L30.5753271,49.6758879 L30.5992523,49.6758879 C31.0538318,49.9151402 31.5801869,50.0586916 32.1065421,50.0586916 L43.5428037,50.0586916 C44.8586916,50.0586916 46.2702804,48.8863551 46.7727103,48.048972 C47.3708411,47.0680374 49.0216822,44.6994393 53.4478505,39.0530841 C53.5914019,38.8616822 53.6871028,38.7420561 53.6871028,38.7420561 C53.6871028,38.7181308 53.711028,38.7181308 53.711028,38.6942056 C53.7349533,38.6463551 53.7828037,38.5985047 53.806729,38.526729 C54.5484112,37.091215 53.9742056,35.2968224 52.4669159,34.4115888 L52.4669159,34.4115888 Z M42.848972,42.5461682 L34.2837383,43.0007477 C33.6616822,42.9768224 31.9151402,41.7327103 31.077757,41.1345794 C30.9342056,41.0388785 30.8145794,40.9431776 30.671028,40.8474766 C30.5274766,40.7517757 30.4078505,40.6560748 30.2642991,40.5603738 C29.5704673,40.0579439 29.0441121,39.7469159 28.6134579,39.5315888 C28.4220561,39.4358879 28.2306542,39.3880374 28.0153271,39.3880374 C27.5128972,39.3880374 27.0343925,39.6751402 26.7951402,40.1297196 C26.4601869,40.7757009 26.7233645,41.6130841 27.393271,41.9719626 C27.8478505,42.1872897 28.4220561,42.5940187 29.0441121,43.0246729 C29.2115888,43.1442991 29.3551402,43.24 29.5226168,43.3596262 L29.5943925,43.4074766 C31.2930841,44.6037383 32.8960748,45.7282243 34.3315888,45.7282243 L42.8968224,45.2736449 C44.6194393,45.2497196 46.031028,43.8381308 46.031028,42.115514 C46.031028,41.804486 45.9831776,41.4695327 45.8874766,41.1585047 C46.9401869,40.2971963 48.4474766,38.9573832 49.6915888,37.6654206 C50.2657944,37.0672897 50.6485981,36.7801869 50.9117757,36.7801869 C50.9596262,36.7801869 51.0314019,36.8041121 51.0792523,36.8280374 C51.2706542,36.9476636 51.4381308,37.1629907 51.3902804,37.3783178 C50.9596262,37.9285981 45.9353271,44.2927103 44.3801869,46.828785 C44.2366355,47.0680374 43.6624299,47.4747664 43.4949533,47.4986916 L32.0586916,47.4986916 C31.9869159,47.4986916 31.9151402,47.4747664 31.8672897,47.4508411 L31.8433645,47.4269159 C30.4557009,46.5656075 27.0343925,44.5319626 25.2878505,43.957757 C23.804486,43.4792523 18.7323364,43.4553271 17.6796262,43.4314019 L17.6796262,37.1869159 C19.3304673,37.1869159 20.7181308,36.7323364 21.7469159,36.4213084 C22.7039252,36.1102804 23.5173832,35.8471028 24.4026168,35.8471028 C27.8957009,35.8471028 29.1398131,36.7323364 31.1734579,38.2157009 L31.2930841,38.3114019 C32.0586916,38.8616822 32.9439252,39.5076636 34.044486,40.1775701 C34.5708411,40.5125234 35.4321495,40.7757009 36.7480374,41.0388785 C39.0448598,41.4934579 41.7723364,41.6609346 42.6814953,41.708785 L42.8250467,41.708785 C42.9394081,41.7083106 43.0492226,41.7535305 43.130089,41.834397 C43.2109554,41.9152634 43.2561754,42.0250779 43.2557009,42.1394393 C43.2796262,42.3547664 43.0882243,42.5461682 42.848972,42.5461682 L42.848972,42.5461682 Z" id="Shape" fill="#FFB005"></path>
                </g>
            </g>
        </g>
    </g>
</svg>