<?xml version="1.0" encoding="UTF-8"?>
<svg width="68px" height="68px" viewBox="0 0 68 68" version="1.1" xmlns="http://www.w3.org/2000/svg" xmlns:xlink="http://www.w3.org/1999/xlink">
    <!-- Generator: Sketch 40.3 (33839) - http://www.bohemiancoding.com/sketch -->
    <title>会员权益_品牌专享_1px copy 2</title>
    <desc>Created with Sketch.</desc>
    <defs>
        <circle id="path-1" cx="34" cy="34" r="34"></circle>
        <mask id="mask-2" maskContentUnits="userSpaceOnUse" maskUnits="objectBoundingBox" x="0" y="0" width="68" height="68" fill="white">
            <use xlink:href="#path-1"></use>
        </mask>
    </defs>
    <g id="公益机构2" stroke="none" stroke-width="1" fill="none" fill-rule="evenodd">
        <g id="公益社区英文-4机构投票" transform="translate(-245.000000, -494.000000)" stroke-width="2" stroke="#FFB005">
            <g id="会员权益_品牌专享_1px-copy-2" transform="translate(245.000000, 494.000000)">
                <g id="特权">
                    <use id="Oval" mask="url(#mask-2)" xlink:href="#path-1"></use>
                    <path d="M56.224658,38.7202345 C56.5717429,37.127598 56.7694495,35.4888299 56.7694495,33.7951433 C56.7694495,24.1272905 50.6888731,15.8631545 42.1611283,12.5856184 C41.329241,8.7603632 37.9448047,6.03133281 34.0301387,6.0292185 C30.1154728,6.02710419 26.7280906,8.75247711 25.8920717,12.5768315 C17.3577367,15.8631545 11.2793571,24.1272905 11.2793571,33.7951433 C11.2793571,35.4888299 11.4814571,37.1297947 11.828542,38.7202345 C10.0543296,40.289481 9.03516309,42.5420388 9.0276985,44.9106478 C9.02648485,49.5127699 12.7556151,53.2448504 17.3577367,53.2472762 C18.6604035,53.2472762 19.873004,52.9265522 20.9647838,52.3927444 C28.7921387,57.9282523 39.2588645,57.9282523 47.0862194,52.3927444 C48.2069455,52.9487694 49.4400094,53.2410679 50.6910698,53.2472762 C55.2952625,53.2472762 59.0276982,49.5148406 59.0276982,44.9106478 C59.0261908,42.5402815 58.0050451,40.285118 56.224658,38.7202345 L56.224658,38.7202345 Z M51.914654,36.6992336 C51.5148474,36.6443151 51.1128439,36.5740194 50.6910698,36.5740194 C48.4808657,36.5740182 46.3613139,37.4526194 44.7992878,39.0162936 C43.2372618,40.5799678 42.3608963,42.7004449 42.3632284,44.9106478 C42.3632284,46.4901039 42.822347,47.9399523 43.5824191,49.1920942 C37.7413314,52.862455 30.3140653,52.862455 24.4729776,49.1920942 C25.230853,47.9399524 25.6921684,46.490104 25.6921684,44.9106478 C25.6933343,42.6996599 24.8156894,40.5788614 23.2524907,39.0152507 C21.689292,37.4516399 19.5687248,36.5734362 17.3577367,36.5740194 C16.9425528,36.5740194 16.5405494,36.6421184 16.1363493,36.6992336 C15.9695928,35.7400625 15.882889,34.7686852 15.8771339,33.7951433 C15.8771339,26.5634752 20.1475965,20.3247335 26.2874849,17.4118562 C27.5400625,20.5918184 30.6088374,22.6832543 34.0266,22.686229 C37.4449084,22.6828985 40.5138396,20.590485 41.7657151,17.4096595 C47.9056035,20.3225367 52.1738694,26.5634752 52.1738693,33.7929466 C52.1693065,34.7672728 52.0825942,35.7394792 51.914654,36.6992336 L51.914654,36.6992336 Z" id="Shape"></path>
                </g>
            </g>
        </g>
    </g>
</svg>