<?xml version="1.0" encoding="UTF-8"?>
<svg width="30px" height="30px" viewBox="0 0 30 30" version="1.1" xmlns="http://www.w3.org/2000/svg" xmlns:xlink="http://www.w3.org/1999/xlink">
    <!-- Generator: Sketch 40.3 (33839) - http://www.bohemiancoding.com/sketch -->
    <title>网址</title>
    <desc>Created with Sketch.</desc>
    <defs></defs>
    <g id="公益机构2" stroke="none" stroke-width="1" fill="none" fill-rule="evenodd">
        <g id="公益社区简体-2机构详情-" transform="translate(-383.000000, -257.000000)" fill="#77D09A">
            <g id="银行地址" transform="translate(383.000000, 207.000000)">
                <g id="网址" transform="translate(0.000000, 50.000000)">
                    <g id="Group">
                        <path d="M15,30 C12.97527,30 11.01087,29.60334 9.16131,28.82109 C7.37508,28.06557 5.77098,26.9841 4.39356,25.60674 C3.01611,24.22929 1.93458,22.62519 1.17906,20.83893 C0.39669,18.98931 0,17.02479 0,14.99997 C0,12.97515 0.39669,11.01066 1.17903,9.16104 C1.93458,7.37478 3.01608,5.77068 4.39353,4.39326 C5.77095,3.0159 7.37505,1.93443 9.16128,1.17894 C11.01087,0.39666 12.9753,0 15,0 C17.0247,0 18.98916,0.39666 20.83869,1.17891 C22.62492,1.9344 24.22902,3.01587 25.60647,4.39323 C26.98392,5.77065 28.06545,7.37475 28.82097,9.16101 C29.60331,11.01066 30,12.97515 30,14.99997 C30,17.02479 29.60331,18.98934 28.82097,20.83896 C28.06542,22.62522 26.98389,24.22932 25.60647,25.60677 C24.22902,26.98413 22.62492,28.0656 20.83869,28.82112 C18.98916,29.60334 17.02473,30 15,30 L15,30 Z M15,0.97674 C7.26711,0.97674 0.97593,7.26753 0.97593,14.99997 C0.97593,22.73247 7.26708,29.02329 15,29.02329 C22.73292,29.02329 29.02404,22.73247 29.02404,14.99997 C29.02404,7.26753 22.73292,0.97674 15,0.97674 L15,0.97674 Z" id="Shape"></path>
                        <path d="M13.4694698,22.6909179 C11.9817821,20.5250116 11.1838003,18.150548 11.0607771,15.5358595 L10.9330193,15.5358595 C9.53598838,15.5358595 8.13895747,15.5357819 6.74192658,15.5360923 C6.69155307,15.5360923 6.64117953,15.5392746 6.5907284,15.541215 C6.27102339,15.5533233 6.01775868,15.3322697 6.00355473,15.0097705 C5.99455114,14.8048612 6.00386519,14.5982444 6.0179139,14.3933352 C6.13007067,12.7549926 6.63691059,11.2479006 7.57708701,9.90155368 C9.00857991,7.85168502 10.9603405,6.57449499 13.4235204,6.13875236 C17.6586997,5.38951411 21.8062491,7.74084773 23.3487345,11.7277297 C23.4383823,11.9593393 23.4214618,12.1709236 23.2517131,12.3551091 C23.0923651,12.5280401 22.8904053,12.5760851 22.6669456,12.506773 C22.4888143,12.4515872 22.3751828,12.3256146 22.308044,12.1522179 C22.0490356,11.4830805 21.7088396,10.8576416 21.2748822,10.2862242 C20.0723598,8.7029898 18.500768,7.69637311 16.5540525,7.2805781 C16.5393829,7.27747341 16.5241699,7.27669725 16.4935888,7.27297163 C17.9756104,9.42731296 18.7780164,11.7998361 18.9025919,14.4153008 L19.0441656,14.4153008 C20.4411965,14.4153008 21.8382274,14.4151456 23.2352583,14.4156113 C23.3127978,14.4156113 23.391424,14.4128171 23.467644,14.4242268 C23.7735332,14.4698657 23.9643937,14.6991467 23.964937,15.0144275 C23.9715345,18.8040844 21.5353653,22.215901 17.9246936,23.4734539 C13.3826162,25.0554464 8.36032156,22.7346163 6.62084384,18.2498204 C6.46638573,17.8515668 6.66834553,17.4834287 7.06908283,17.4329 C7.3211833,17.4010769 7.55535421,17.5539051 7.66114637,17.8254098 C7.87894007,18.3840204 8.1516867,18.9140679 8.49428875,19.40585 C9.69091219,21.1236726 11.3088415,22.2175309 13.3543636,22.6742302 C13.3839357,22.6808276 13.4146721,22.6830785 13.4694698,22.6909179 L13.4694698,22.6909179 L13.4694698,22.6909179 Z M14.9802874,22.8257388 C16.0046784,21.5753267 16.7523643,20.194285 17.2302531,18.6680215 C17.5486386,17.6513146 17.7315045,16.6105464 17.7749701,15.5447854 L12.1848285,15.5447854 C12.3308263,18.2765983 13.2606797,20.6951484 14.9802874,22.8257388 L14.9802874,22.8257388 L14.9802874,22.8257388 Z M14.9844787,7.14047916 C14.0487265,8.28238252 13.3414791,9.53721882 12.8599424,10.9187263 C12.4664235,12.0477452 12.242498,13.2093633 12.1899512,14.408781 L17.7790839,14.408781 C17.631068,11.6830999 16.7018356,9.26982777 14.9844787,7.14047916 L14.9844787,7.14047916 L14.9844787,7.14047916 Z M16.519901,22.6809829 C18.3729326,22.303065 19.9026112,21.3878037 21.0935686,19.9229354 C22.1299126,18.6482291 22.696052,17.1828952 22.8239651,15.5421464 L18.9028248,15.5421464 C18.7821301,18.1474434 17.9839155,20.5217517 16.519901,22.6809829 L16.519901,22.6809829 L16.519901,22.6809829 Z M13.4682279,7.27685247 C9.81952379,7.95421725 7.2994505,11.1973718 7.15779921,14.4063748 L11.0617861,14.4063748 C11.187914,11.7996808 11.9884571,9.42785626 13.4682279,7.27685247 L13.4682279,7.27685247 L13.4682279,7.27685247 Z" id="Shape"></path>
                    </g>
                </g>
            </g>
        </g>
    </g>
</svg>