<?xml version="1.0" encoding="UTF-8"?>
<svg width="30px" height="30px" viewBox="0 0 30 30" version="1.1" xmlns="http://www.w3.org/2000/svg" xmlns:xlink="http://www.w3.org/1999/xlink">
    <!-- Generator: Sketch 40.3 (33839) - http://www.bohemiancoding.com/sketch -->
    <title>银行地址</title>
    <desc>Created with Sketch.</desc>
    <defs></defs>
    <g id="公益机构2" stroke="none" stroke-width="1" fill="none" fill-rule="evenodd">
        <g id="公益社区简体-2机构详情-" transform="translate(-383.000000, -307.000000)">
            <g id="银行地址" transform="translate(383.000000, 207.000000)">
                <path d="M15,130 C12.97527,130 11.01087,129.60334 9.16131,128.82109 C7.37508,128.06557 5.77098,126.9841 4.39356,125.60674 C3.01611,124.22929 1.93458,122.62519 1.17906,120.83893 C0.39669,118.98931 0,117.02479 0,114.99997 C0,112.97515 0.39669,111.01066 1.17903,109.16104 C1.93458,107.37478 3.01608,105.77068 4.39353,104.39326 C5.77095,103.0159 7.37505,101.93443 9.16128,101.17894 C11.01087,100.39666 12.9753,100 15,100 C17.0247,100 18.98916,100.39666 20.83869,101.17891 C22.62492,101.9344 24.22902,103.01587 25.60647,104.39323 C26.98392,105.77065 28.06545,107.37475 28.82097,109.16101 C29.60331,111.01066 30,112.97515 30,114.99997 C30,117.02479 29.60331,118.98934 28.82097,120.83896 C28.06542,122.62522 26.98389,124.22932 25.60647,125.60677 C24.22902,126.98413 22.62492,128.0656 20.83869,128.82112 C18.98916,129.60334 17.02473,130 15,130 L15,130 Z M15,100.97674 C7.26711,100.97674 0.97593,107.26753 0.97593,114.99997 C0.97593,122.73247 7.26708,129.02329 15,129.02329 C22.73292,129.02329 29.02404,122.73247 29.02404,114.99997 C29.02404,107.26753 22.73292,100.97674 15,100.97674 L15,100.97674 Z" id="Shape" fill="#1DC7DF"></path>
                <polygon id="智慧银行桌面图标" stroke="#1DC7DF" stroke-linejoin="round" points="22.8875223 119.625 14.4437612 124.5 6 119.625 6 109.875 14.4437612 105 22.8517433 109.854368 19.2795 111.912228 14.4437612 109.120333 11.3723371 110.893614 16.2099911 113.680547 12.6349621 115.74006 11.8868493 115.309078 9.56832589 113.973395 9.56832589 117.564877 14.4437612 120.379667 17.5628036 118.578964 14.7298192 116.946884 18.3048482 114.887371 18.9706339 115.270842 22.8875223 117.596652"></polygon>
            </g>
        </g>
    </g>
</svg>