<?xml version="1.0" encoding="UTF-8"?>
<svg width="30px" height="30px" viewBox="0 0 30 30" version="1.1" xmlns="http://www.w3.org/2000/svg" xmlns:xlink="http://www.w3.org/1999/xlink">
    <!-- Generator: Sketch 40.3 (33839) - http://www.bohemiancoding.com/sketch -->
    <title>地域</title>
    <desc>Created with Sketch.</desc>
    <defs></defs>
    <g id="公益机构2" stroke="none" stroke-width="1" fill="none" fill-rule="evenodd">
        <g id="公益社区简体-2机构详情-" transform="translate(-383.000000, -207.000000)" fill="#FFB005">
            <g id="银行地址" transform="translate(383.000000, 207.000000)">
                <g id="地域">
                    <path d="M15,30 C12.97527,30 11.01087,29.60334 9.16131,28.82109 C7.37508,28.06557 5.77098,26.9841 4.39356,25.60674 C3.01611,24.22929 1.93458,22.62519 1.17906,20.83893 C0.39669,18.98931 0,17.02479 0,14.99997 C0,12.97515 0.39669,11.01066 1.17903,9.16104 C1.93458,7.37478 3.01608,5.77068 4.39353,4.39326 C5.77095,3.0159 7.37505,1.93443 9.16128,1.17894 C11.01087,0.39666 12.9753,0 15,0 C17.0247,0 18.98916,0.39666 20.83869,1.17891 C22.62492,1.9344 24.22902,3.01587 25.60647,4.39323 C26.98392,5.77065 28.06545,7.37475 28.82097,9.16101 C29.60331,11.01066 30,12.97515 30,14.99997 C30,17.02479 29.60331,18.98934 28.82097,20.83896 C28.06542,22.62522 26.98389,24.22932 25.60647,25.60677 C24.22902,26.98413 22.62492,28.0656 20.83869,28.82112 C18.98916,29.60334 17.02473,30 15,30 L15,30 Z M15,0.97674 C7.26711,0.97674 0.97593,7.26753 0.97593,14.99997 C0.97593,22.73247 7.26708,29.02329 15,29.02329 C22.73292,29.02329 29.02404,22.73247 29.02404,14.99997 C29.02404,7.26753 22.73292,0.97674 15,0.97674 L15,0.97674 Z" id="Shape"></path>
                    <path d="M23.9660183,18.1549433 L21.3282151,7.64038956 C21.2666195,7.39209786 21.0446432,7.21707646 20.788833,7.21510352 L16.7415103,7.21510352 L11.8559725,6.01585867 C11.8125598,6.00526247 11.7680281,5.99993802 11.723341,6.00000054 L6.55977117,6.00000054 C6.54679634,6.00000054 6.53382151,6.00453144 6.52084668,6.00535524 C6.51981693,6.00535524 6.51878719,6.00762068 6.51755149,6.00782663 C6.5089016,6.00782663 6.50025172,6.01029803 6.49139588,6.01112183 C6.48871854,6.01112183 6.48604119,6.01235752 6.48336384,6.01256347 C6.47636156,6.01256347 6.46956522,6.01462297 6.46276888,6.01585867 L6.45185355,6.01791816 L6.43414188,6.02162526 L6.421373,6.02450855 L6.41663616,6.0255383 L6.40469108,6.0288335 L6.392746,6.03212869 L6.37215103,6.03892503 L6.36535469,6.04119048 C6.32643605,6.05510692 6.28920103,6.07334448 6.25434783,6.09556118 C6.24583524,6.10091588 6.2375286,6.10654517 6.22942792,6.11244906 L6.22819222,6.11244906 C6.21995423,6.11835295 6.2119222,6.12446279 6.20409611,6.13077858 C6.17995025,6.15034757 6.15749138,6.17191084 6.13695652,6.19524082 L6.13304348,6.19997766 C6.12796339,6.20588155 6.12302059,6.21192274 6.1182151,6.21810123 L6.11553776,6.22119048 L6.11244851,6.22551542 C6.10832952,6.23087011 6.10427918,6.2363621 6.10029748,6.24199139 L6.09432494,6.25043533 C6.0904119,6.25620192 6.08670481,6.26196851 6.08299771,6.2677351 L6.07805492,6.27556118 C6.07290618,6.28400512 6.06816934,6.29244906 6.06343249,6.30109894 L6.06343249,6.30274654 C6.0590389,6.31084723 6.05491991,6.31915386 6.05107551,6.32766645 L6.04778032,6.33508064 C6.04469108,6.34187697 6.04180778,6.34846736 6.03913043,6.3556756 L6.03624714,6.36329574 C6.03350114,6.37043533 6.03089245,6.37730032 6.02842105,6.3838907 L6.02636156,6.39006919 C6.02361556,6.39844448 6.02107551,6.40688842 6.01874142,6.415401 L6.01874142,6.41807835 C6.00793461,6.45802626 6.00164808,6.49906142 6,6.54041244 L6,6.57439414 C6,6.58304402 6.0004119,6.59169391 6.0012357,6.60034379 L6.0012357,6.60631633 C6.0012357,6.61434837 6.00267735,6.62238041 6.00370709,6.63041244 L6.00370709,6.63762068 C6.00473684,6.64544677 6.00597254,6.65306691 6.00741419,6.66089299 C6.00741419,6.66336439 6.00741419,6.66583578 6.00864989,6.66810123 C6.01050343,6.67819276 6.01276888,6.6886962 6.01524027,6.69816988 L10.2907551,23.7330898 C10.3727663,24.0214391 10.6685929,24.1928721 10.959551,24.1206603 C11.2505091,24.0484484 11.4318493,23.7585892 11.3695195,23.4653552 L9.9023341,17.6361562 L14.2940046,17.6361562 L19.1795423,18.835401 C19.222955,18.8459972 19.2674868,18.8513216 19.3121739,18.8512591 L23.4266362,18.8512591 C23.5984802,18.8500307 23.7602522,18.7699947 23.8654896,18.6341383 C23.9707271,18.4982819 24.0077844,18.3216391 23.9660183,18.1549433 L23.9660183,18.1549433 Z M19.3793135,17.739131 L14.4937757,16.5398861 C14.450363,16.5292899 14.4058313,16.5239655 14.3611442,16.524028 L9.62430206,16.524028 L7.26473684,7.11212869 L11.6562014,7.11212869 L16.5417391,8.31137354 C16.5851518,8.32196974 16.6296836,8.32729419 16.6743707,8.32723167 L20.355103,8.32723167 L22.7138444,17.739131 L19.3793135,17.739131 Z" id="Shape"></path>
                </g>
            </g>
        </g>
    </g>
</svg>